# Blender v3.2.1 OBJ File: 'SlavePosMesh.blend'
# www.blender.org
mtllib SlavePosMesh.mtl
o 立方体.001
v -0.012500 -0.100000 0.205000
v -0.012500 -0.000000 0.205000
v -0.012500 -0.100000 -0.245000
v -0.012500 -0.000000 -0.245000
v 0.012500 -0.100000 0.205000
v 0.012500 -0.000000 0.205000
v 0.012500 -0.100000 -0.245000
v 0.012500 -0.000000 -0.245000
v 0.000000 -0.012500 0.250000
v 0.000000 0.012500 0.250000
v -0.250000 -0.012500 -0.250000
v -0.250000 0.012500 -0.250000
v 0.000000 -0.012500 0.250000
v 0.000000 0.012500 0.250000
v 0.250000 -0.012500 -0.250000
v 0.250000 0.012500 -0.250000
vt 0.625000 0.000000
vt 0.375000 0.250000
vt 0.375000 0.000000
vt 0.625000 0.250000
vt 0.375000 0.500000
vt 0.625000 0.500000
vt 0.375000 0.750000
vt 0.625000 0.750000
vt 0.375000 1.000000
vt 0.125000 0.750000
vt 0.125000 0.500000
vt 0.875000 0.500000
vt 0.625000 0.000000
vt 0.375000 0.250000
vt 0.375000 0.000000
vt 0.625000 0.250000
vt 0.375000 0.500000
vt 0.625000 0.500000
vt 0.375000 0.750000
vt 0.625000 1.000000
vt 0.375000 1.000000
vt 0.125000 0.500000
vt 0.125000 0.750000
vt 0.875000 0.750000
vt 0.625000 0.750000
vt 0.625000 1.000000
vt 0.875000 0.750000
vt 0.875000 0.500000
vn -1.0000 0.0000 0.0000
vn 0.0000 0.0000 -1.0000
vn 1.0000 0.0000 0.0000
vn 0.0000 0.0000 1.0000
vn 0.0000 -1.0000 0.0000
vn 0.0000 1.0000 0.0000
vn -0.8944 0.0000 0.4472
vn 0.8944 0.0000 0.4472
usemtl None
s off
f 2/1/1 3/2/1 1/3/1
f 4/4/2 7/5/2 3/2/2
f 8/6/3 5/7/3 7/5/3
f 6/8/4 1/9/4 5/7/4
f 7/5/5 1/10/5 3/11/5
f 4/12/6 6/8/6 8/6/6
f 10/13/7 11/14/7 9/15/7
f 12/16/2 15/17/2 11/14/2
f 16/18/8 13/19/8 15/17/8
f 13/19/4 10/20/4 9/21/4
f 11/22/4 13/19/4 9/23/4
f 16/18/4 10/24/4 14/25/4
f 2/1/1 4/4/1 3/2/1
f 4/4/2 8/6/2 7/5/2
f 8/6/3 6/8/3 5/7/3
f 6/8/4 2/26/4 1/9/4
f 7/5/5 5/7/5 1/10/5
f 4/12/6 2/27/6 6/8/6
f 10/13/7 12/16/7 11/14/7
f 12/16/2 16/18/2 15/17/2
f 16/18/8 14/25/8 13/19/8
f 13/19/4 14/25/4 10/20/4
f 11/22/5 15/17/5 13/19/5
f 16/18/6 12/28/6 10/24/6
